<mxfile host="app.diagrams.net" modified="2022-09-17T13:16:02.538Z" agent="5.0 (Windows NT 10.0; Win64; x64) AppleWebKit/537.36 (KHTML, like Gecko) Chrome/105.0.0.0 Safari/537.36" etag="DcRd2_7P5Y8wvDWL8mDC" version="20.2.7" type="github">
  <diagram id="lAxTLqssW1NV8Ro4JL8J" name="Page-1">
    <mxGraphModel dx="1354" dy="681" grid="1" gridSize="10" guides="1" tooltips="1" connect="1" arrows="1" fold="1" page="1" pageScale="1" pageWidth="850" pageHeight="1100" math="0" shadow="0">
      <root>
        <mxCell id="0" />
        <mxCell id="1" parent="0" />
        <mxCell id="0bgC1TPVDkCxgGGvJI1G-30" style="edgeStyle=orthogonalEdgeStyle;rounded=0;orthogonalLoop=1;jettySize=auto;html=1;exitX=0.5;exitY=1;exitDx=0;exitDy=0;entryX=0.5;entryY=0;entryDx=0;entryDy=0;" edge="1" parent="1" source="0bgC1TPVDkCxgGGvJI1G-10" target="0bgC1TPVDkCxgGGvJI1G-12">
          <mxGeometry relative="1" as="geometry" />
        </mxCell>
        <mxCell id="0bgC1TPVDkCxgGGvJI1G-10" value="Crossover" style="rounded=0;whiteSpace=wrap;html=1;fillColor=#e1d5e7;strokeColor=#9673a6;" vertex="1" parent="1">
          <mxGeometry x="905" y="570" width="110" height="60" as="geometry" />
        </mxCell>
        <mxCell id="0bgC1TPVDkCxgGGvJI1G-43" style="edgeStyle=orthogonalEdgeStyle;rounded=0;orthogonalLoop=1;jettySize=auto;html=1;exitX=0;exitY=0.5;exitDx=0;exitDy=0;entryX=0;entryY=0.5;entryDx=0;entryDy=0;fontSize=14;" edge="1" parent="1" source="0bgC1TPVDkCxgGGvJI1G-12" target="0bgC1TPVDkCxgGGvJI1G-21">
          <mxGeometry relative="1" as="geometry">
            <Array as="points">
              <mxPoint x="850" y="690" />
              <mxPoint x="850" y="303" />
            </Array>
          </mxGeometry>
        </mxCell>
        <mxCell id="0bgC1TPVDkCxgGGvJI1G-12" value="Mutation" style="rounded=0;whiteSpace=wrap;html=1;fillColor=#e1d5e7;strokeColor=#9673a6;" vertex="1" parent="1">
          <mxGeometry x="905" y="660" width="110" height="60" as="geometry" />
        </mxCell>
        <mxCell id="0bgC1TPVDkCxgGGvJI1G-33" style="edgeStyle=orthogonalEdgeStyle;rounded=0;orthogonalLoop=1;jettySize=auto;html=1;exitX=0.5;exitY=1;exitDx=0;exitDy=0;entryX=0.5;entryY=0;entryDx=0;entryDy=0;" edge="1" parent="1" source="0bgC1TPVDkCxgGGvJI1G-16" target="0bgC1TPVDkCxgGGvJI1G-17">
          <mxGeometry relative="1" as="geometry" />
        </mxCell>
        <mxCell id="0bgC1TPVDkCxgGGvJI1G-16" value="Mulai" style="rounded=1;whiteSpace=wrap;html=1;arcSize=50;fillColor=#f5f5f5;fontColor=#333333;strokeColor=#666666;" vertex="1" parent="1">
          <mxGeometry x="920" y="130" width="80" height="40" as="geometry" />
        </mxCell>
        <mxCell id="0bgC1TPVDkCxgGGvJI1G-34" style="edgeStyle=orthogonalEdgeStyle;rounded=0;orthogonalLoop=1;jettySize=auto;html=1;exitX=0.5;exitY=1;exitDx=0;exitDy=0;entryX=0.5;entryY=0;entryDx=0;entryDy=0;" edge="1" parent="1" source="0bgC1TPVDkCxgGGvJI1G-17" target="0bgC1TPVDkCxgGGvJI1G-21">
          <mxGeometry relative="1" as="geometry" />
        </mxCell>
        <mxCell id="0bgC1TPVDkCxgGGvJI1G-17" value="Inisialisasi Populasi" style="rounded=0;whiteSpace=wrap;html=1;fillColor=#d5e8d4;strokeColor=#82b366;" vertex="1" parent="1">
          <mxGeometry x="900" y="200" width="120" height="50" as="geometry" />
        </mxCell>
        <mxCell id="0bgC1TPVDkCxgGGvJI1G-27" style="edgeStyle=orthogonalEdgeStyle;rounded=0;orthogonalLoop=1;jettySize=auto;html=1;exitX=0.5;exitY=1;exitDx=0;exitDy=0;entryX=0.5;entryY=0;entryDx=0;entryDy=0;" edge="1" parent="1" source="0bgC1TPVDkCxgGGvJI1G-21" target="0bgC1TPVDkCxgGGvJI1G-25">
          <mxGeometry relative="1" as="geometry" />
        </mxCell>
        <mxCell id="0bgC1TPVDkCxgGGvJI1G-21" value="Evaluasi Fitness" style="rounded=0;whiteSpace=wrap;html=1;fillColor=#dae8fc;strokeColor=#6c8ebf;" vertex="1" parent="1">
          <mxGeometry x="900" y="280" width="120" height="45" as="geometry" />
        </mxCell>
        <mxCell id="0bgC1TPVDkCxgGGvJI1G-29" style="edgeStyle=orthogonalEdgeStyle;rounded=0;orthogonalLoop=1;jettySize=auto;html=1;exitX=0.5;exitY=1;exitDx=0;exitDy=0;entryX=0.5;entryY=0;entryDx=0;entryDy=0;" edge="1" parent="1" source="0bgC1TPVDkCxgGGvJI1G-22" target="0bgC1TPVDkCxgGGvJI1G-10">
          <mxGeometry relative="1" as="geometry" />
        </mxCell>
        <mxCell id="0bgC1TPVDkCxgGGvJI1G-22" value="Membuat Mating Pool" style="rounded=0;whiteSpace=wrap;html=1;fillColor=#dae8fc;strokeColor=#6c8ebf;" vertex="1" parent="1">
          <mxGeometry x="905" y="480" width="110" height="50" as="geometry" />
        </mxCell>
        <mxCell id="0bgC1TPVDkCxgGGvJI1G-40" style="edgeStyle=orthogonalEdgeStyle;rounded=0;orthogonalLoop=1;jettySize=auto;html=1;exitX=0.5;exitY=1;exitDx=0;exitDy=0;entryX=0.5;entryY=0;entryDx=0;entryDy=0;fontSize=14;" edge="1" parent="1" source="0bgC1TPVDkCxgGGvJI1G-24" target="0bgC1TPVDkCxgGGvJI1G-38">
          <mxGeometry relative="1" as="geometry" />
        </mxCell>
        <mxCell id="0bgC1TPVDkCxgGGvJI1G-24" value="Cromosome Terbaik" style="shape=parallelogram;perimeter=parallelogramPerimeter;whiteSpace=wrap;html=1;fixedSize=1;fillColor=#f5f5f5;fontColor=#333333;strokeColor=#666666;" vertex="1" parent="1">
          <mxGeometry x="1080" y="362.5" width="150" height="60" as="geometry" />
        </mxCell>
        <mxCell id="0bgC1TPVDkCxgGGvJI1G-26" style="edgeStyle=orthogonalEdgeStyle;rounded=0;orthogonalLoop=1;jettySize=auto;html=1;entryX=0;entryY=0.5;entryDx=0;entryDy=0;" edge="1" parent="1" source="0bgC1TPVDkCxgGGvJI1G-25" target="0bgC1TPVDkCxgGGvJI1G-24">
          <mxGeometry relative="1" as="geometry" />
        </mxCell>
        <mxCell id="0bgC1TPVDkCxgGGvJI1G-28" style="edgeStyle=orthogonalEdgeStyle;rounded=0;orthogonalLoop=1;jettySize=auto;html=1;exitX=0.5;exitY=1;exitDx=0;exitDy=0;entryX=0.5;entryY=0;entryDx=0;entryDy=0;" edge="1" parent="1" source="0bgC1TPVDkCxgGGvJI1G-25" target="0bgC1TPVDkCxgGGvJI1G-22">
          <mxGeometry relative="1" as="geometry" />
        </mxCell>
        <mxCell id="0bgC1TPVDkCxgGGvJI1G-25" value="Skor &amp;gt;= Max Skor" style="rhombus;whiteSpace=wrap;html=1;fillColor=#fff2cc;strokeColor=#d6b656;" vertex="1" parent="1">
          <mxGeometry x="900" y="360" width="120" height="65" as="geometry" />
        </mxCell>
        <mxCell id="0bgC1TPVDkCxgGGvJI1G-35" value="&lt;span style=&quot;color: rgb(0, 0, 0); font-family: Helvetica; font-size: 12px; font-style: normal; font-variant-ligatures: normal; font-variant-caps: normal; letter-spacing: normal; orphans: 2; text-indent: 0px; text-transform: none; widows: 2; word-spacing: 0px; -webkit-text-stroke-width: 0px; background-color: rgb(248, 249, 250); text-decoration-thickness: initial; text-decoration-style: initial; text-decoration-color: initial; float: none; display: inline !important;&quot;&gt;&lt;b&gt;Populasi Baru&lt;/b&gt;&lt;/span&gt;" style="text;whiteSpace=wrap;html=1;align=center;" vertex="1" parent="1">
          <mxGeometry x="740" y="480" width="100" height="30" as="geometry" />
        </mxCell>
        <mxCell id="0bgC1TPVDkCxgGGvJI1G-36" value="&lt;span style=&quot;color: rgb(0, 0, 0); font-family: Helvetica; font-size: 12px; font-style: normal; font-variant-ligatures: normal; font-variant-caps: normal; letter-spacing: normal; orphans: 2; text-indent: 0px; text-transform: none; widows: 2; word-spacing: 0px; -webkit-text-stroke-width: 0px; background-color: rgb(248, 249, 250); text-decoration-thickness: initial; text-decoration-style: initial; text-decoration-color: initial; float: none; display: inline !important;&quot;&gt;&lt;b&gt;Benar&lt;/b&gt;&lt;/span&gt;" style="text;whiteSpace=wrap;html=1;align=center;fillColor=none;" vertex="1" parent="1">
          <mxGeometry x="1020" y="360" width="50" height="30" as="geometry" />
        </mxCell>
        <mxCell id="0bgC1TPVDkCxgGGvJI1G-37" value="&lt;span style=&quot;color: rgb(0, 0, 0); font-family: Helvetica; font-size: 12px; font-style: normal; font-variant-ligatures: normal; font-variant-caps: normal; letter-spacing: normal; orphans: 2; text-indent: 0px; text-transform: none; widows: 2; word-spacing: 0px; -webkit-text-stroke-width: 0px; background-color: rgb(248, 249, 250); text-decoration-thickness: initial; text-decoration-style: initial; text-decoration-color: initial; float: none; display: inline !important;&quot;&gt;&lt;b&gt;Salah&lt;/b&gt;&lt;/span&gt;" style="text;whiteSpace=wrap;html=1;align=center;" vertex="1" parent="1">
          <mxGeometry x="880" y="422.5" width="60" height="30" as="geometry" />
        </mxCell>
        <mxCell id="0bgC1TPVDkCxgGGvJI1G-38" value="Selesai" style="rounded=1;whiteSpace=wrap;html=1;arcSize=50;fillColor=#f5f5f5;fontColor=#333333;strokeColor=#666666;" vertex="1" parent="1">
          <mxGeometry x="1115" y="460" width="80" height="40" as="geometry" />
        </mxCell>
      </root>
    </mxGraphModel>
  </diagram>
</mxfile>
